# xmcd
#
# Track frame offsets: 
#        150
#        12574
#        31783
#        48578
#        65192
#        83275
#        99384
#        116878
#        132512
#        148952
#        164940
#        180899
#
# Disc length: 2592 seconds
#
# Revision: 5
# Processed by: cddbd v1.5.2PL0 Copyright (c) Steve Scherf et al.
# Submitted via: ExactAudioCopyFreeDBPlugin 1.0
#
DISCID=ab0a1e0c
DTITLE=Howard Carpendale - Das Alles Bin Ich
DYEAR=2011
DGENRE=Pop
TTITLE0=Das Alles Bin Ich
TTITLE1=Wir Finden Einen Weg
TTITLE2=Was Machst Du Noch Heute Nacht
TTITLE3=Alles In Allem
TTITLE4=Ich Rede Viel Zu Viel
TTITLE5=Woran Denkst Du
TTITLE6=Jetzt Bin Ich 64
TTITLE7=Doch Du Bist Noch Da
TTITLE8=Du Bist Viel Mehr
TTITLE9=Alles Hat Zeit
TTITLE10=Wer
TTITLE11=Frühstück Für Zwei
EXTD=
EXTT0=
EXTT1=
EXTT2=
EXTT3=
EXTT4=
EXTT5=
EXTT6=
EXTT7=
EXTT8=
EXTT9=
EXTT10=
EXTT11=
PLAYORDER=
